<svg width="26" height="26" viewBox="0 0 26 26" fill="none" xmlns="http://www.w3.org/2000/svg">
<path d="M3.36475 3.88531L5.53141 4.26031L6.53454 16.2114C6.61475 17.1874 7.43037 17.9364 8.40954 17.9332H19.7731C20.7075 17.9353 21.5002 17.2478 21.6325 16.3228L22.621 9.49157C22.7314 8.72802 22.2012 8.01969 21.4387 7.90927C21.372 7.8999 5.87933 7.89469 5.87933 7.89469" stroke="currentColor" stroke-width="2" stroke-linecap="round" stroke-linejoin="round"/>
<path d="M15.2136 11.7446H18.1022" stroke="currentColor" stroke-width="2" stroke-linecap="round" stroke-linejoin="round"/>
<path fill-rule="evenodd" clip-rule="evenodd" d="M7.95265 21.5443C8.26619 21.5443 8.51932 21.7984 8.51932 22.1109C8.51932 22.4245 8.26619 22.6786 7.95265 22.6786C7.63911 22.6786 7.38599 22.4245 7.38599 22.1109C7.38599 21.7984 7.63911 21.5443 7.95265 21.5443Z" fill="white" stroke="currentColor" stroke-width="2" stroke-linecap="round" stroke-linejoin="round"/>
<path fill-rule="evenodd" clip-rule="evenodd" d="M19.7029 21.5443C20.0164 21.5443 20.2706 21.7984 20.2706 22.1109C20.2706 22.4245 20.0164 22.6786 19.7029 22.6786C19.3894 22.6786 19.1362 22.4245 19.1362 22.1109C19.1362 21.7984 19.3894 21.5443 19.7029 21.5443Z" fill="white" stroke="currentColor" stroke-width="2" stroke-linecap="round" stroke-linejoin="round"/>
</svg>
