<svg width="32" height="29" viewBox="0 0 32 29" fill="none" xmlns="http://www.w3.org/2000/svg">
<path d="M21.2019 5.9787H10.2317" stroke="currentColor" stroke-width="1.8" stroke-linecap="round" stroke-linejoin="round"/>
<path d="M24.632 5.9787H29.0639C29.8234 5.9787 30.4342 6.59413 30.4342 7.3358V25.8539C30.4342 26.6114 29.8234 27.211 29.0639 27.211H2.37835C1.61882 27.211 1.00806 26.6035 1.00806 25.8539V7.3358C1.00806 6.58624 1.61882 5.9787 2.37835 5.9787H6.81028" stroke="currentColor" stroke-width="1.8" stroke-linecap="round" stroke-linejoin="round"/>
<path d="M10.2326 3.48541V7.95911C10.2326 8.89803 9.46527 9.65548 8.51781 9.65548C7.57034 9.65548 6.80298 8.89803 6.80298 7.95911V3.48541C6.80298 2.54648 7.57034 1.78903 8.51781 1.78903C9.46527 1.78903 10.2326 2.54648 10.2326 3.48541Z" stroke="currentColor" stroke-width="1.8" stroke-linecap="round" stroke-linejoin="round"/>
<path d="M24.632 7.95911V3.48541C24.632 2.54648 23.8647 1.78903 22.9172 1.78903C21.9698 1.78903 21.2024 2.54648 21.2024 3.48541V7.95911C21.2024 8.89803 21.9698 9.65548 22.9172 9.65548C23.8647 9.65548 24.632 8.89803 24.632 7.95911Z" stroke="currentColor" stroke-width="1.8" stroke-linecap="round" stroke-linejoin="round"/>
<path d="M30.4342 12.1172H1.00024" stroke="currentColor" stroke-width="1.8" stroke-linecap="round" stroke-linejoin="round"/>
<path d="M30.4342 19.3366H1.00024" stroke="currentColor" stroke-width="1.8" stroke-linecap="round" stroke-linejoin="round"/>
<path d="M7.85962 27.211V12.1172" stroke="currentColor" stroke-width="1.8" stroke-linecap="round" stroke-linejoin="round"/>
<path d="M15.7209 27.211V12.1172" stroke="currentColor" stroke-width="1.8" stroke-linecap="round" stroke-linejoin="round"/>
<path d="M23.5823 27.211V12.1172" stroke="currentColor" stroke-width="1.8" stroke-linecap="round" stroke-linejoin="round"/>
<path d="M9.84106 23.1318L11.3366 24.6151L13.6466 22.327" stroke="currentColor" stroke-width="1.8" stroke-linecap="round" stroke-linejoin="round"/>
<path d="M17.7493 15.3916L19.2448 16.8749L21.5548 14.5868" stroke="currentColor" stroke-width="1.8" stroke-linecap="round" stroke-linejoin="round"/>
</svg>
