<svg width="21" height="20" viewBox="0 0 21 20" fill="none" xmlns="http://www.w3.org/2000/svg">
<path fill-rule="evenodd" clip-rule="evenodd" d="M1.5 4.50006C1.5 1.87485 1.52811 1.00006 5 1.00006C8.47189 1.00006 8.5 1.87485 8.5 4.50006C8.5 7.12527 8.51107 8.00006 5 8.00006C1.48893 8.00006 1.5 7.12527 1.5 4.50006Z" stroke="currentColor" stroke-width="1.8" stroke-linecap="round" stroke-linejoin="round"/>
<path fill-rule="evenodd" clip-rule="evenodd" d="M12.4998 4.50006C12.4998 1.87485 12.5279 1.00006 15.9998 1.00006C19.4716 1.00006 19.4998 1.87485 19.4998 4.50006C19.4998 7.12527 19.5108 8.00006 15.9998 8.00006C12.4887 8.00006 12.4998 7.12527 12.4998 4.50006Z" stroke="currentColor" stroke-width="1.8" stroke-linecap="round" stroke-linejoin="round"/>
<path fill-rule="evenodd" clip-rule="evenodd" d="M1.5 15.5001C1.5 12.8748 1.52811 12.0001 5 12.0001C8.47189 12.0001 8.5 12.8748 8.5 15.5001C8.5 18.1253 8.51107 19.0001 5 19.0001C1.48893 19.0001 1.5 18.1253 1.5 15.5001Z" stroke="currentColor" stroke-width="1.8" stroke-linecap="round" stroke-linejoin="round"/>
<path fill-rule="evenodd" clip-rule="evenodd" d="M12.4998 15.5001C12.4998 12.8748 12.5279 12.0001 15.9998 12.0001C19.4716 12.0001 19.4998 12.8748 19.4998 15.5001C19.4998 18.1253 19.5108 19.0001 15.9998 19.0001C12.4887 19.0001 12.4998 18.1253 12.4998 15.5001Z" stroke="currentColor" stroke-width="1.8" stroke-linecap="round" stroke-linejoin="round"/>
</svg>
