<svg width="16" height="15" viewBox="0 0 16 15" fill="none" xmlns="http://www.w3.org/2000/svg">
<path opacity="0.3" fill-rule="evenodd" clip-rule="evenodd" d="M12.3122 11.7734C10.4254 13.6604 7.63147 14.068 5.3451 13.0107C5.00758 12.8748 4.73085 12.765 4.46778 12.765C3.73503 12.7693 2.82296 13.4798 2.34894 13.0063C1.87491 12.5323 2.58595 11.6195 2.58595 10.8823C2.58595 10.6192 2.48047 10.3474 2.3446 10.0092C1.28673 7.72322 1.69498 4.9284 3.58178 3.04202C5.99037 0.63254 9.90356 0.63254 12.3122 3.0414C14.7251 5.4546 14.7207 9.3645 12.3122 11.7734Z" fill="white" stroke="currentColor" stroke-width="1.3891" stroke-linecap="round" stroke-linejoin="round"/>
<path d="M10.3784 7.66361H10.384" stroke="currentColor" stroke-width="1.85213" stroke-linecap="round" stroke-linejoin="round"/>
<path d="M7.90357 7.66361H7.90912" stroke="currentColor" stroke-width="1.85213" stroke-linecap="round" stroke-linejoin="round"/>
<path d="M5.42847 7.66361H5.43402" stroke="currentColor" stroke-width="1.85213" stroke-linecap="round" stroke-linejoin="round"/>
</svg>
