<svg width="26" height="33" viewBox="0 0 26 33" fill="none" xmlns="http://www.w3.org/2000/svg">
<path d="M19.4485 12.9648H5.70637C5.02447 12.9648 4.47168 13.5176 4.47168 14.1995V25.9761C4.47168 26.658 5.02447 27.2108 5.70637 27.2108H19.4485C20.1304 27.2108 20.6832 26.658 20.6832 25.9761V14.1995C20.6832 13.5176 20.1304 12.9648 19.4485 12.9648Z" stroke="currentColor" stroke-width="1.8" stroke-linecap="round" stroke-linejoin="round"/>
<path d="M14.692 3.09288H17.8922C18.2355 3.09288 18.5068 3.36971 18.5068 3.70745V7.78247C18.5068 8.12574 18.2299 8.39704 17.8922 8.39704H7.25618C6.9129 8.39704 6.6416 8.12021 6.6416 7.78247V3.70745C6.6416 3.36417 6.91844 3.09288 7.25618 3.09288H10.5062C10.5062 1.9357 11.4419 1 12.5991 1C13.7563 1 14.692 1.9357 14.692 3.09288Z" stroke="currentColor" stroke-width="1.8" stroke-linecap="round" stroke-linejoin="round"/>
<path d="M18.5071 4.70404H22.2942C23.3185 4.70404 24.1434 5.53455 24.1434 6.5533V30.1508C24.1434 31.175 23.3129 32 22.2942 32H2.84926C1.82497 32 1 31.1695 1 30.1508V6.5533C1 5.52901 1.83051 4.70404 2.84926 4.70404H6.63637" stroke="currentColor" stroke-width="1.8" stroke-linecap="round" stroke-linejoin="round"/>
</svg>
