<svg width="35" height="25" viewBox="0 0 35 25" fill="none" xmlns="http://www.w3.org/2000/svg">
<path d="M2.71753 18.8348C2.71753 15.4259 5.45238 12.6587 8.83531 12.6587C12.2182 12.6587 14.9531 15.4259 14.9531 18.8348H2.71753Z" stroke="currentColor" stroke-width="1.8" stroke-linecap="round" stroke-linejoin="round"/>
<path d="M13.2486 18.8348C13.2486 21.2975 11.272 23.2936 8.83523 23.2936C6.39849 23.2936 4.42188 21.2975 4.42188 18.8348" stroke="currentColor" stroke-width="1.8" stroke-linecap="round" stroke-linejoin="round"/>
<path d="M29.3922 23.3518C31.8654 23.3518 33.8704 21.3295 33.8704 18.8348C33.8704 16.3401 31.8654 14.3177 29.3922 14.3177C26.919 14.3177 24.9141 16.3401 24.9141 18.8348C24.9141 21.3295 26.919 23.3518 29.3922 23.3518Z" stroke="currentColor" stroke-width="1.8" stroke-linecap="round" stroke-linejoin="round"/>
<path d="M24.914 18.8284H14.9531" stroke="currentColor" stroke-width="1.8" stroke-linecap="round" stroke-linejoin="round"/>
<path d="M28.6016 2.12762H26.2491C25.277 2.12762 24.4863 2.92475 24.4863 3.90982C24.4863 4.89488 25.277 5.69201 26.2491 5.69201H28.6016" stroke="currentColor" stroke-width="1.8" stroke-linecap="round" stroke-linejoin="round"/>
<path d="M24.4856 3.90977L21.2646 1.64801" stroke="currentColor" stroke-width="1.8" stroke-linecap="round" stroke-linejoin="round"/>
<path d="M26.249 5.69202L29.3922 14.3113" stroke="currentColor" stroke-width="1.8" stroke-linecap="round" stroke-linejoin="round"/>
<path d="M8.83553 12.6587C8.83553 12.6587 9.52897 8.68604 1.64844 8.68604H15.0959C16.0615 8.68604 16.891 9.39891 17.0336 10.371L17.5974 14.1298C17.6882 14.7585 18.2261 15.2186 18.8482 15.2186H20.9739C21.6738 15.2186 22.2441 14.6483 22.2441 13.9419V9.97569C22.2441 9.2693 22.8144 8.699 23.5143 8.699H27.3444" stroke="currentColor" stroke-width="1.8" stroke-linecap="round" stroke-linejoin="round"/>
</svg>
