<svg width="22" height="29" viewBox="0 0 22 29" fill="none" xmlns="http://www.w3.org/2000/svg">
<path d="M21.1005 11.5214L14.2019 13.6594L7.31226 10.8453L14.2019 8.70731L21.1005 11.5214Z" stroke="currentColor" stroke-width="1.8" stroke-linecap="round" stroke-linejoin="round"/>
<path d="M21.1005 11.5214V20.0277L14.2019 22.5038L7.31226 20.0277V10.8453" stroke="currentColor" stroke-width="1.8" stroke-linecap="round" stroke-linejoin="round"/>
<path d="M14.2019 22.5038V13.6594" stroke="currentColor" stroke-width="1.8" stroke-linecap="round" stroke-linejoin="round"/>
<path d="M17.0891 21.4713V25.9757C17.0891 27.1452 16.1537 28.0863 15.0114 28.0863H2.97709C1.82582 28.0863 0.899414 27.1361 0.899414 25.9757V3.02425C0.899414 1.85475 1.83482 0.913666 2.97709 0.913666H15.0024C16.1537 0.913666 17.0801 1.86389 17.0801 3.02425V9.88594" stroke="currentColor" stroke-width="1.8" stroke-linecap="round" stroke-linejoin="round"/>
<path d="M6.88086 3.70035H11.1082" stroke="currentColor" stroke-width="1.8" stroke-linecap="round" stroke-linejoin="round"/>
<path d="M8.99456 26.131C9.59561 26.131 10.0829 25.6361 10.0829 25.0255C10.0829 24.4149 9.59561 23.92 8.99456 23.92C8.3935 23.92 7.90625 24.4149 7.90625 25.0255C7.90625 25.6361 8.3935 26.131 8.99456 26.131Z" fill="white"/>
</svg>
