<svg width="26" height="26" viewBox="0 0 26 26" fill="none" xmlns="http://www.w3.org/2000/svg">
<path d="M6.33333 16.75C4.5 16.75 3 15.1429 3 13.1786C3 11.5714 5.16667 5.94643 5.58333 4.78571C5.66667 4.42857 6 4.25 6.33333 4.25C6.66667 4.25 7 4.42857 7.08333 4.78571C7.5 5.94643 9.66667 11.5714 9.66667 13.1786C9.66667 15.1429 8.16667 16.75 6.33333 16.75ZM6.33333 7.55357C5.5 9.96429 4.66667 12.4643 4.66667 13.1786C4.66667 14.1607 5.41667 14.9643 6.33333 14.9643C7.25 14.9643 8 14.1607 8 13.1786C8 12.4643 7.16667 9.96429 6.33333 7.55357ZM19.6667 16.75C17.8333 16.75 16.3333 15.1429 16.3333 13.1786C16.3333 11.5714 18.5 5.94643 18.9167 4.78571C19 4.42857 19.3333 4.25 19.6667 4.25C20 4.25 20.3333 4.42857 20.4167 4.78571C20.8333 5.94643 23 11.5714 23 13.1786C23 15.1429 21.5 16.75 19.6667 16.75ZM19.6667 7.55357C18.8333 9.875 18 12.4643 18 13.1786C18 14.1607 18.75 14.9643 19.6667 14.9643C20.5833 14.9643 21.3333 14.1607 21.3333 13.1786C21.3333 12.4643 20.5 9.96429 19.6667 7.55357Z" fill="currentColor"/>
<path d="M19.6667 6.375H6.33333C5.83333 6.375 5.5 5.95 5.5 5.3125C5.5 4.675 5.83333 4.25 6.33333 4.25H19.6667C20.1667 4.25 20.5 4.675 20.5 5.3125C20.5 5.95 20.1667 6.375 19.6667 6.375Z" fill="currentColor"/>
<path d="M12.8125 21.75C12.175 21.75 11.75 21.4 11.75 20.875V5.125C11.75 4.6 12.175 4.25 12.8125 4.25C13.45 4.25 13.875 4.6 13.875 5.125V20.875C13.875 21.4 13.45 21.75 12.8125 21.75Z" fill="currentColor"/>
<path d="M18 21.75H8C7.5 21.75 7.16667 21.3864 7.16667 20.8409C7.16667 20.2955 7.5 19.9318 8 19.9318H18C18.5 19.9318 18.8333 20.2955 18.8333 20.8409C18.8333 21.3864 18.5 21.75 18 21.75ZM8.83333 13.5682H3.83333C3.33333 13.5682 3 13.2045 3 12.6591C3 12.1136 3.33333 11.75 3.83333 11.75H8.83333C9.33333 11.75 9.66667 12.1136 9.66667 12.6591C9.66667 13.2045 9.33333 13.5682 8.83333 13.5682ZM22.1667 13.5682H17.1667C16.6667 13.5682 16.3333 13.2045 16.3333 12.6591C16.3333 12.1136 16.6667 11.75 17.1667 11.75H22.1667C22.6667 11.75 23 12.1136 23 12.6591C23 13.2045 22.6667 13.5682 22.1667 13.5682Z" fill="currentColor"/>
</svg>
