<svg width="15" height="15" viewBox="0 0 15 15" fill="none" xmlns="http://www.w3.org/2000/svg">
<path fill-rule="evenodd" clip-rule="evenodd" d="M8.09018 2.57883L9.21838 4.83271C9.32895 5.05398 9.54237 5.20741 9.78987 5.24291L12.3137 5.6062C12.9373 5.69623 13.1854 6.45196 12.7341 6.88498L10.9091 8.63864C10.7297 8.81109 10.6481 9.05899 10.6905 9.30244L11.1212 11.7782C11.2273 12.3907 10.5754 12.8579 10.0181 12.5682L7.76232 11.3985C7.54118 11.2837 7.27633 11.2837 7.05455 11.3985L4.79879 12.5682C4.24144 12.8579 3.58959 12.3907 3.6963 11.7782L4.12637 9.30244C4.1688 9.05899 4.08716 8.81109 3.9078 8.63864L2.08275 6.88498C1.63147 6.45196 1.87961 5.69623 2.50318 5.6062L5.027 5.24291C5.2745 5.20741 5.48857 5.05398 5.59914 4.83271L6.72669 2.57883C7.00569 2.02154 7.81118 2.02154 8.09018 2.57883Z" fill="#EA2427" stroke="#EA2427" stroke-width="1.3891" stroke-linecap="round" stroke-linejoin="round"/>
</svg>
